<mxfile host="app.diagrams.net" modified="2024-07-18T13:33:26.556Z" agent="Mozilla/5.0 (Windows NT 10.0; Win64; x64) AppleWebKit/537.36 (KHTML, like Gecko) Chrome/126.0.0.0 Safari/537.36 Edg/126.0.0.0" etag="2Lh-NLuqRrYPX4ckKyBv" version="24.7.1" type="onedrive">
  <diagram name="ページ1" id="luPTfVIqRHt5aYT3YMR-">
    <mxGraphModel grid="1" page="0" gridSize="10" guides="1" tooltips="1" connect="1" arrows="1" fold="1" pageScale="1" pageWidth="827" pageHeight="1169" math="0" shadow="0">
      <root>
        <mxCell id="0" />
        <mxCell id="1" parent="0" />
        <mxCell id="ysh2dZmAzOo2GhFwSXoA-35" style="edgeStyle=none;curved=1;rounded=0;orthogonalLoop=1;jettySize=auto;html=1;exitX=0.5;exitY=1;exitDx=0;exitDy=0;entryX=0.5;entryY=0;entryDx=0;entryDy=0;fontSize=12;startSize=8;endSize=8;" edge="1" parent="1" source="ysh2dZmAzOo2GhFwSXoA-1" target="ysh2dZmAzOo2GhFwSXoA-2">
          <mxGeometry relative="1" as="geometry" />
        </mxCell>
        <mxCell id="ysh2dZmAzOo2GhFwSXoA-1" value="main()関数&lt;div&gt;開始&lt;/div&gt;" style="rounded=0;whiteSpace=wrap;html=1;" vertex="1" parent="1">
          <mxGeometry y="-80" width="120" height="60" as="geometry" />
        </mxCell>
        <mxCell id="ysh2dZmAzOo2GhFwSXoA-36" style="edgeStyle=none;curved=1;rounded=0;orthogonalLoop=1;jettySize=auto;html=1;exitX=0.5;exitY=1;exitDx=0;exitDy=0;entryX=0.5;entryY=0;entryDx=0;entryDy=0;fontSize=12;startSize=8;endSize=8;" edge="1" parent="1" source="ysh2dZmAzOo2GhFwSXoA-2" target="ysh2dZmAzOo2GhFwSXoA-3">
          <mxGeometry relative="1" as="geometry" />
        </mxCell>
        <mxCell id="ysh2dZmAzOo2GhFwSXoA-2" value="root = None" style="rounded=1;whiteSpace=wrap;html=1;" vertex="1" parent="1">
          <mxGeometry y="10" width="120" height="60" as="geometry" />
        </mxCell>
        <mxCell id="ysh2dZmAzOo2GhFwSXoA-37" style="edgeStyle=none;curved=1;rounded=0;orthogonalLoop=1;jettySize=auto;html=1;exitX=0.5;exitY=1;exitDx=0;exitDy=0;entryX=0.5;entryY=0;entryDx=0;entryDy=0;fontSize=12;startSize=8;endSize=8;" edge="1" parent="1" source="ysh2dZmAzOo2GhFwSXoA-3" target="ysh2dZmAzOo2GhFwSXoA-6">
          <mxGeometry relative="1" as="geometry" />
        </mxCell>
        <mxCell id="ysh2dZmAzOo2GhFwSXoA-3" value="fとしてZac_Japan.txtファイルを開く" style="rounded=1;whiteSpace=wrap;html=1;" vertex="1" parent="1">
          <mxGeometry y="100" width="120" height="60" as="geometry" />
        </mxCell>
        <mxCell id="ysh2dZmAzOo2GhFwSXoA-39" style="edgeStyle=none;curved=1;rounded=0;orthogonalLoop=1;jettySize=auto;html=1;exitX=0.5;exitY=1;exitDx=0;exitDy=0;fontSize=12;startSize=8;endSize=8;" edge="1" parent="1" source="ysh2dZmAzOo2GhFwSXoA-4" target="ysh2dZmAzOo2GhFwSXoA-8">
          <mxGeometry relative="1" as="geometry" />
        </mxCell>
        <mxCell id="ysh2dZmAzOo2GhFwSXoA-4" value="line = line.strip()" style="rounded=1;whiteSpace=wrap;html=1;" vertex="1" parent="1">
          <mxGeometry y="280" width="120" height="60" as="geometry" />
        </mxCell>
        <mxCell id="ysh2dZmAzOo2GhFwSXoA-38" style="edgeStyle=none;curved=1;rounded=0;orthogonalLoop=1;jettySize=auto;html=1;exitX=0.5;exitY=1;exitDx=0;exitDy=0;entryX=0.5;entryY=0;entryDx=0;entryDy=0;fontSize=12;startSize=8;endSize=8;" edge="1" parent="1" source="ysh2dZmAzOo2GhFwSXoA-6" target="ysh2dZmAzOo2GhFwSXoA-4">
          <mxGeometry relative="1" as="geometry" />
        </mxCell>
        <mxCell id="ysh2dZmAzOo2GhFwSXoA-6" value="for&amp;nbsp;&lt;div&gt;line in f&lt;/div&gt;" style="rhombus;whiteSpace=wrap;html=1;" vertex="1" parent="1">
          <mxGeometry x="-10" y="180" width="140" height="80" as="geometry" />
        </mxCell>
        <mxCell id="ysh2dZmAzOo2GhFwSXoA-40" style="edgeStyle=none;curved=1;rounded=0;orthogonalLoop=1;jettySize=auto;html=1;exitX=0.5;exitY=1;exitDx=0;exitDy=0;fontSize=12;startSize=8;endSize=8;" edge="1" parent="1" source="ysh2dZmAzOo2GhFwSXoA-8" target="ysh2dZmAzOo2GhFwSXoA-9">
          <mxGeometry relative="1" as="geometry" />
        </mxCell>
        <mxCell id="ysh2dZmAzOo2GhFwSXoA-8" value="if line：" style="rhombus;whiteSpace=wrap;html=1;" vertex="1" parent="1">
          <mxGeometry x="-10" y="360" width="140" height="80" as="geometry" />
        </mxCell>
        <mxCell id="ysh2dZmAzOo2GhFwSXoA-41" style="edgeStyle=none;curved=1;rounded=0;orthogonalLoop=1;jettySize=auto;html=1;exitX=0.5;exitY=1;exitDx=0;exitDy=0;entryX=0.5;entryY=0;entryDx=0;entryDy=0;fontSize=12;startSize=8;endSize=8;" edge="1" parent="1" source="ysh2dZmAzOo2GhFwSXoA-9" target="ysh2dZmAzOo2GhFwSXoA-10">
          <mxGeometry relative="1" as="geometry" />
        </mxCell>
        <mxCell id="ysh2dZmAzOo2GhFwSXoA-9" value="nnp = line.rsplit(&#39; &#39;, 1)" style="rounded=1;whiteSpace=wrap;html=1;" vertex="1" parent="1">
          <mxGeometry y="460" width="120" height="60" as="geometry" />
        </mxCell>
        <mxCell id="ysh2dZmAzOo2GhFwSXoA-42" style="edgeStyle=none;curved=1;rounded=0;orthogonalLoop=1;jettySize=auto;html=1;exitX=0.5;exitY=1;exitDx=0;exitDy=0;fontSize=12;startSize=8;endSize=8;" edge="1" parent="1" source="ysh2dZmAzOo2GhFwSXoA-10" target="ysh2dZmAzOo2GhFwSXoA-11">
          <mxGeometry relative="1" as="geometry" />
        </mxCell>
        <mxCell id="ysh2dZmAzOo2GhFwSXoA-10" value="nn = nnp[0]&lt;div&gt;profile = nnp[1]&lt;br&gt;&lt;/div&gt;" style="rounded=1;whiteSpace=wrap;html=1;" vertex="1" parent="1">
          <mxGeometry y="540" width="120" height="60" as="geometry" />
        </mxCell>
        <mxCell id="ysh2dZmAzOo2GhFwSXoA-43" style="edgeStyle=none;curved=1;rounded=0;orthogonalLoop=1;jettySize=auto;html=1;exitX=0.5;exitY=1;exitDx=0;exitDy=0;entryX=0.5;entryY=0;entryDx=0;entryDy=0;fontSize=12;startSize=8;endSize=8;" edge="1" parent="1" source="ysh2dZmAzOo2GhFwSXoA-11" target="ysh2dZmAzOo2GhFwSXoA-12">
          <mxGeometry relative="1" as="geometry" />
        </mxCell>
        <mxCell id="ysh2dZmAzOo2GhFwSXoA-11" value="number, name = nn.split(&#39; &#39;, 1)" style="rounded=1;whiteSpace=wrap;html=1;" vertex="1" parent="1">
          <mxGeometry y="620" width="120" height="60" as="geometry" />
        </mxCell>
        <mxCell id="ysh2dZmAzOo2GhFwSXoA-12" value="root = insert(root, int(number), name, profile)" style="rounded=1;whiteSpace=wrap;html=1;" vertex="1" parent="1">
          <mxGeometry y="700" width="120" height="60" as="geometry" />
        </mxCell>
        <mxCell id="ysh2dZmAzOo2GhFwSXoA-13" value="while&amp;nbsp;&lt;div&gt;True&lt;/div&gt;" style="rhombus;whiteSpace=wrap;html=1;" vertex="1" parent="1">
          <mxGeometry y="780" width="130" height="80" as="geometry" />
        </mxCell>
        <mxCell id="ysh2dZmAzOo2GhFwSXoA-58" style="edgeStyle=none;curved=1;rounded=0;orthogonalLoop=1;jettySize=auto;html=1;exitX=0.5;exitY=1;exitDx=0;exitDy=0;entryX=0.5;entryY=0;entryDx=0;entryDy=0;fontSize=12;startSize=8;endSize=8;" edge="1" parent="1" source="ysh2dZmAzOo2GhFwSXoA-14" target="ysh2dZmAzOo2GhFwSXoA-15">
          <mxGeometry relative="1" as="geometry" />
        </mxCell>
        <mxCell id="ysh2dZmAzOo2GhFwSXoA-14" value="print(&quot;\n1:探索 2:表示 3:削除 9:終了&quot;)" style="rounded=1;whiteSpace=wrap;html=1;" vertex="1" parent="1">
          <mxGeometry x="10" y="880" width="120" height="60" as="geometry" />
        </mxCell>
        <mxCell id="ysh2dZmAzOo2GhFwSXoA-60" style="edgeStyle=none;curved=1;rounded=0;orthogonalLoop=1;jettySize=auto;html=1;exitX=0.5;exitY=1;exitDx=0;exitDy=0;fontSize=12;startSize=8;endSize=8;" edge="1" parent="1" source="ysh2dZmAzOo2GhFwSXoA-15" target="ysh2dZmAzOo2GhFwSXoA-20">
          <mxGeometry relative="1" as="geometry" />
        </mxCell>
        <mxCell id="ysh2dZmAzOo2GhFwSXoA-15" value="choice = input()" style="rounded=1;whiteSpace=wrap;html=1;" vertex="1" parent="1">
          <mxGeometry x="10" y="960" width="120" height="60" as="geometry" />
        </mxCell>
        <mxCell id="ysh2dZmAzOo2GhFwSXoA-72" style="edgeStyle=none;curved=1;rounded=0;orthogonalLoop=1;jettySize=auto;html=1;exitX=0.5;exitY=1;exitDx=0;exitDy=0;entryX=0.5;entryY=0;entryDx=0;entryDy=0;fontSize=12;startSize=8;endSize=8;" edge="1" parent="1" source="ysh2dZmAzOo2GhFwSXoA-16" target="ysh2dZmAzOo2GhFwSXoA-28">
          <mxGeometry relative="1" as="geometry" />
        </mxCell>
        <mxCell id="ysh2dZmAzOo2GhFwSXoA-16" value="elif&lt;div&gt;choice == &#39;2&#39;&lt;br&gt;&lt;/div&gt;" style="rhombus;whiteSpace=wrap;html=1;" vertex="1" parent="1">
          <mxGeometry x="-160" y="1063" width="130" height="80" as="geometry" />
        </mxCell>
        <mxCell id="ysh2dZmAzOo2GhFwSXoA-73" style="edgeStyle=none;curved=1;rounded=0;orthogonalLoop=1;jettySize=auto;html=1;exitX=0.5;exitY=1;exitDx=0;exitDy=0;entryX=0.5;entryY=0;entryDx=0;entryDy=0;fontSize=12;startSize=8;endSize=8;" edge="1" parent="1" source="ysh2dZmAzOo2GhFwSXoA-17" target="ysh2dZmAzOo2GhFwSXoA-21">
          <mxGeometry relative="1" as="geometry" />
        </mxCell>
        <mxCell id="ysh2dZmAzOo2GhFwSXoA-17" value="if&lt;div&gt;choice == &#39;1&#39;&lt;br&gt;&lt;/div&gt;" style="rhombus;whiteSpace=wrap;html=1;" vertex="1" parent="1">
          <mxGeometry x="-320" y="1063" width="130" height="80" as="geometry" />
        </mxCell>
        <mxCell id="ysh2dZmAzOo2GhFwSXoA-66" style="edgeStyle=none;curved=1;rounded=0;orthogonalLoop=1;jettySize=auto;html=1;exitX=0.5;exitY=1;exitDx=0;exitDy=0;fontSize=12;startSize=8;endSize=8;" edge="1" parent="1" source="ysh2dZmAzOo2GhFwSXoA-18" target="ysh2dZmAzOo2GhFwSXoA-34">
          <mxGeometry relative="1" as="geometry" />
        </mxCell>
        <mxCell id="ysh2dZmAzOo2GhFwSXoA-18" value="else" style="rhombus;whiteSpace=wrap;html=1;" vertex="1" parent="1">
          <mxGeometry x="340" y="1063" width="130" height="80" as="geometry" />
        </mxCell>
        <mxCell id="ysh2dZmAzOo2GhFwSXoA-67" style="edgeStyle=none;curved=1;rounded=0;orthogonalLoop=1;jettySize=auto;html=1;exitX=0.5;exitY=1;exitDx=0;exitDy=0;entryX=0.5;entryY=0;entryDx=0;entryDy=0;fontSize=12;startSize=8;endSize=8;" edge="1" parent="1" source="ysh2dZmAzOo2GhFwSXoA-19" target="ysh2dZmAzOo2GhFwSXoA-32">
          <mxGeometry relative="1" as="geometry" />
        </mxCell>
        <mxCell id="ysh2dZmAzOo2GhFwSXoA-19" value="elif&lt;div&gt;choice == &#39;9&#39;&lt;br&gt;&lt;/div&gt;" style="rhombus;whiteSpace=wrap;html=1;" vertex="1" parent="1">
          <mxGeometry x="170" y="1063" width="130" height="80" as="geometry" />
        </mxCell>
        <mxCell id="ysh2dZmAzOo2GhFwSXoA-69" style="edgeStyle=none;curved=1;rounded=0;orthogonalLoop=1;jettySize=auto;html=1;exitX=0.5;exitY=1;exitDx=0;exitDy=0;fontSize=12;startSize=8;endSize=8;" edge="1" parent="1" source="ysh2dZmAzOo2GhFwSXoA-20" target="ysh2dZmAzOo2GhFwSXoA-29">
          <mxGeometry relative="1" as="geometry" />
        </mxCell>
        <mxCell id="ysh2dZmAzOo2GhFwSXoA-20" value="elif&lt;div&gt;choice == &#39;3&#39;&lt;br&gt;&lt;/div&gt;" style="rhombus;whiteSpace=wrap;html=1;" vertex="1" parent="1">
          <mxGeometry x="5" y="1063" width="130" height="80" as="geometry" />
        </mxCell>
        <mxCell id="ysh2dZmAzOo2GhFwSXoA-74" style="edgeStyle=none;curved=1;rounded=0;orthogonalLoop=1;jettySize=auto;html=1;exitX=0.5;exitY=1;exitDx=0;exitDy=0;entryX=0.5;entryY=0;entryDx=0;entryDy=0;fontSize=12;startSize=8;endSize=8;" edge="1" parent="1" source="ysh2dZmAzOo2GhFwSXoA-21" target="ysh2dZmAzOo2GhFwSXoA-22">
          <mxGeometry relative="1" as="geometry" />
        </mxCell>
        <mxCell id="ysh2dZmAzOo2GhFwSXoA-21" value="print(&quot;登録番号は？&quot;)" style="rounded=1;whiteSpace=wrap;html=1;" vertex="1" parent="1">
          <mxGeometry x="-315" y="1163" width="120" height="60" as="geometry" />
        </mxCell>
        <mxCell id="ysh2dZmAzOo2GhFwSXoA-22" value="&lt;div&gt;number = int(input())&lt;/div&gt;&lt;div&gt;&amp;nbsp;result = search(root, number)&lt;/div&gt;" style="rounded=1;whiteSpace=wrap;html=1;" vertex="1" parent="1">
          <mxGeometry x="-315" y="1243" width="120" height="60" as="geometry" />
        </mxCell>
        <mxCell id="ysh2dZmAzOo2GhFwSXoA-80" style="edgeStyle=none;curved=1;rounded=0;orthogonalLoop=1;jettySize=auto;html=1;exitX=0.5;exitY=1;exitDx=0;exitDy=0;entryX=0.5;entryY=0;entryDx=0;entryDy=0;fontSize=12;startSize=8;endSize=8;" edge="1" parent="1" source="ysh2dZmAzOo2GhFwSXoA-24" target="ysh2dZmAzOo2GhFwSXoA-27">
          <mxGeometry relative="1" as="geometry" />
        </mxCell>
        <mxCell id="ysh2dZmAzOo2GhFwSXoA-24" value="&lt;div&gt;else&lt;/div&gt;" style="rhombus;whiteSpace=wrap;html=1;" vertex="1" parent="1">
          <mxGeometry x="-250" y="1323" width="130" height="80" as="geometry" />
        </mxCell>
        <mxCell id="ysh2dZmAzOo2GhFwSXoA-25" value="if&lt;div&gt;result&lt;/div&gt;" style="rhombus;whiteSpace=wrap;html=1;" vertex="1" parent="1">
          <mxGeometry x="-390" y="1323" width="130" height="80" as="geometry" />
        </mxCell>
        <mxCell id="ysh2dZmAzOo2GhFwSXoA-26" value="print(f&quot;{result.number} {result.name} {result.profile}&quot;)" style="rounded=1;whiteSpace=wrap;html=1;" vertex="1" parent="1">
          <mxGeometry x="-385" y="1423" width="120" height="60" as="geometry" />
        </mxCell>
        <mxCell id="ysh2dZmAzOo2GhFwSXoA-27" value="print(&quot;該当する選手は見つかりませんでした。&quot;)" style="rounded=1;whiteSpace=wrap;html=1;" vertex="1" parent="1">
          <mxGeometry x="-245" y="1423" width="120" height="60" as="geometry" />
        </mxCell>
        <mxCell id="ysh2dZmAzOo2GhFwSXoA-28" value="tree(root)関数&lt;div&gt;呼び出し&lt;/div&gt;" style="rounded=1;whiteSpace=wrap;html=1;" vertex="1" parent="1">
          <mxGeometry x="-155" y="1163" width="120" height="60" as="geometry" />
        </mxCell>
        <mxCell id="ysh2dZmAzOo2GhFwSXoA-70" style="edgeStyle=none;curved=1;rounded=0;orthogonalLoop=1;jettySize=auto;html=1;exitX=0.5;exitY=1;exitDx=0;exitDy=0;entryX=0.5;entryY=0;entryDx=0;entryDy=0;fontSize=12;startSize=8;endSize=8;" edge="1" parent="1" source="ysh2dZmAzOo2GhFwSXoA-29" target="ysh2dZmAzOo2GhFwSXoA-30">
          <mxGeometry relative="1" as="geometry" />
        </mxCell>
        <mxCell id="ysh2dZmAzOo2GhFwSXoA-29" value="&lt;div&gt;print(&quot;登録番号は？&quot;)&lt;/div&gt;&lt;div&gt;number = int(input())&lt;/div&gt;" style="rounded=1;whiteSpace=wrap;html=1;" vertex="1" parent="1">
          <mxGeometry x="10" y="1162" width="120" height="60" as="geometry" />
        </mxCell>
        <mxCell id="ysh2dZmAzOo2GhFwSXoA-71" style="edgeStyle=none;curved=1;rounded=0;orthogonalLoop=1;jettySize=auto;html=1;exitX=0.5;exitY=1;exitDx=0;exitDy=0;entryX=0.5;entryY=0;entryDx=0;entryDy=0;fontSize=12;startSize=8;endSize=8;" edge="1" parent="1" source="ysh2dZmAzOo2GhFwSXoA-30" target="ysh2dZmAzOo2GhFwSXoA-31">
          <mxGeometry relative="1" as="geometry" />
        </mxCell>
        <mxCell id="ysh2dZmAzOo2GhFwSXoA-30" value="root = delete(root, number)関数&lt;div&gt;呼び出し&lt;/div&gt;" style="rounded=1;whiteSpace=wrap;html=1;" vertex="1" parent="1">
          <mxGeometry x="10" y="1243" width="120" height="60" as="geometry" />
        </mxCell>
        <mxCell id="ysh2dZmAzOo2GhFwSXoA-31" value="print(f&quot;登録番号 {number} を削除しました。&quot;)" style="rounded=1;whiteSpace=wrap;html=1;" vertex="1" parent="1">
          <mxGeometry x="10" y="1323" width="120" height="60" as="geometry" />
        </mxCell>
        <mxCell id="ysh2dZmAzOo2GhFwSXoA-68" style="edgeStyle=none;curved=1;rounded=0;orthogonalLoop=1;jettySize=auto;html=1;exitX=0.5;exitY=1;exitDx=0;exitDy=0;entryX=0.5;entryY=0;entryDx=0;entryDy=0;fontSize=12;startSize=8;endSize=8;" edge="1" parent="1" source="ysh2dZmAzOo2GhFwSXoA-32" target="ysh2dZmAzOo2GhFwSXoA-33">
          <mxGeometry relative="1" as="geometry" />
        </mxCell>
        <mxCell id="ysh2dZmAzOo2GhFwSXoA-32" value="print(&quot;プログラムを終了します。&quot;)" style="rounded=1;whiteSpace=wrap;html=1;" vertex="1" parent="1">
          <mxGeometry x="175" y="1163" width="120" height="60" as="geometry" />
        </mxCell>
        <mxCell id="ysh2dZmAzOo2GhFwSXoA-33" value="break" style="rounded=1;whiteSpace=wrap;html=1;" vertex="1" parent="1">
          <mxGeometry x="175" y="1243" width="120" height="60" as="geometry" />
        </mxCell>
        <mxCell id="ysh2dZmAzOo2GhFwSXoA-34" value="print(&quot;無効な選択です。もう一度選択してください。&quot;)" style="rounded=1;whiteSpace=wrap;html=1;" vertex="1" parent="1">
          <mxGeometry x="345" y="1163" width="120" height="60" as="geometry" />
        </mxCell>
        <mxCell id="ysh2dZmAzOo2GhFwSXoA-44" value="" style="endArrow=none;html=1;rounded=0;fontSize=12;startSize=8;endSize=8;curved=1;exitX=0;exitY=0.5;exitDx=0;exitDy=0;" edge="1" parent="1" source="ysh2dZmAzOo2GhFwSXoA-12">
          <mxGeometry width="50" height="50" relative="1" as="geometry">
            <mxPoint x="-40" y="470" as="sourcePoint" />
            <mxPoint x="-50" y="730" as="targetPoint" />
          </mxGeometry>
        </mxCell>
        <mxCell id="ysh2dZmAzOo2GhFwSXoA-45" value="" style="endArrow=none;html=1;rounded=0;fontSize=12;startSize=8;endSize=8;curved=1;" edge="1" parent="1">
          <mxGeometry width="50" height="50" relative="1" as="geometry">
            <mxPoint x="-50" y="730" as="sourcePoint" />
            <mxPoint x="-50" y="220" as="targetPoint" />
          </mxGeometry>
        </mxCell>
        <mxCell id="ysh2dZmAzOo2GhFwSXoA-46" value="" style="endArrow=classic;html=1;rounded=0;fontSize=12;startSize=8;endSize=8;curved=1;entryX=0;entryY=0.5;entryDx=0;entryDy=0;" edge="1" parent="1" target="ysh2dZmAzOo2GhFwSXoA-6">
          <mxGeometry width="50" height="50" relative="1" as="geometry">
            <mxPoint x="-50" y="220" as="sourcePoint" />
            <mxPoint x="10" y="420" as="targetPoint" />
          </mxGeometry>
        </mxCell>
        <mxCell id="ysh2dZmAzOo2GhFwSXoA-47" value="" style="endArrow=none;html=1;rounded=0;fontSize=12;startSize=8;endSize=8;curved=1;entryX=1;entryY=0.5;entryDx=0;entryDy=0;" edge="1" parent="1" target="ysh2dZmAzOo2GhFwSXoA-6">
          <mxGeometry width="50" height="50" relative="1" as="geometry">
            <mxPoint x="170" y="220" as="sourcePoint" />
            <mxPoint x="30" y="550" as="targetPoint" />
          </mxGeometry>
        </mxCell>
        <mxCell id="ysh2dZmAzOo2GhFwSXoA-48" value="" style="endArrow=none;html=1;rounded=0;fontSize=12;startSize=8;endSize=8;curved=1;" edge="1" parent="1">
          <mxGeometry width="50" height="50" relative="1" as="geometry">
            <mxPoint x="170" y="780" as="sourcePoint" />
            <mxPoint x="170" y="220" as="targetPoint" />
          </mxGeometry>
        </mxCell>
        <mxCell id="ysh2dZmAzOo2GhFwSXoA-49" value="" style="endArrow=classic;html=1;rounded=0;fontSize=12;startSize=8;endSize=8;curved=1;entryX=0.431;entryY=0.027;entryDx=0;entryDy=0;entryPerimeter=0;" edge="1" parent="1" target="ysh2dZmAzOo2GhFwSXoA-13">
          <mxGeometry width="50" height="50" relative="1" as="geometry">
            <mxPoint x="170" y="782" as="sourcePoint" />
            <mxPoint x="30" y="550" as="targetPoint" />
          </mxGeometry>
        </mxCell>
        <mxCell id="ysh2dZmAzOo2GhFwSXoA-50" value="" style="endArrow=none;html=1;rounded=0;fontSize=12;startSize=8;endSize=8;curved=1;entryX=1;entryY=0.5;entryDx=0;entryDy=0;" edge="1" parent="1" target="ysh2dZmAzOo2GhFwSXoA-8">
          <mxGeometry width="50" height="50" relative="1" as="geometry">
            <mxPoint x="150" y="400" as="sourcePoint" />
            <mxPoint x="30" y="550" as="targetPoint" />
          </mxGeometry>
        </mxCell>
        <mxCell id="ysh2dZmAzOo2GhFwSXoA-51" value="" style="endArrow=none;html=1;rounded=0;fontSize=12;startSize=8;endSize=8;curved=1;" edge="1" parent="1">
          <mxGeometry width="50" height="50" relative="1" as="geometry">
            <mxPoint x="150" y="730" as="sourcePoint" />
            <mxPoint x="150" y="400" as="targetPoint" />
          </mxGeometry>
        </mxCell>
        <mxCell id="ysh2dZmAzOo2GhFwSXoA-52" value="" style="endArrow=classic;html=1;rounded=0;fontSize=12;startSize=8;endSize=8;curved=1;entryX=1;entryY=0.5;entryDx=0;entryDy=0;" edge="1" parent="1" target="ysh2dZmAzOo2GhFwSXoA-12">
          <mxGeometry width="50" height="50" relative="1" as="geometry">
            <mxPoint x="150" y="730" as="sourcePoint" />
            <mxPoint x="60" y="620" as="targetPoint" />
          </mxGeometry>
        </mxCell>
        <mxCell id="ysh2dZmAzOo2GhFwSXoA-53" value="True" style="text;html=1;align=center;verticalAlign=middle;resizable=0;points=[];autosize=1;strokeColor=none;fillColor=none;fontSize=16;" vertex="1" parent="1">
          <mxGeometry x="54" y="251" width="60" height="30" as="geometry" />
        </mxCell>
        <mxCell id="ysh2dZmAzOo2GhFwSXoA-54" value="False" style="text;html=1;align=center;verticalAlign=middle;resizable=0;points=[];autosize=1;strokeColor=none;fillColor=none;fontSize=16;" vertex="1" parent="1">
          <mxGeometry x="124" y="181" width="60" height="30" as="geometry" />
        </mxCell>
        <mxCell id="ysh2dZmAzOo2GhFwSXoA-55" value="True" style="text;html=1;align=center;verticalAlign=middle;resizable=0;points=[];autosize=1;strokeColor=none;fillColor=none;fontSize=16;" vertex="1" parent="1">
          <mxGeometry x="54" y="431" width="60" height="30" as="geometry" />
        </mxCell>
        <mxCell id="ysh2dZmAzOo2GhFwSXoA-56" value="False" style="text;html=1;align=center;verticalAlign=middle;resizable=0;points=[];autosize=1;strokeColor=none;fillColor=none;fontSize=16;" vertex="1" parent="1">
          <mxGeometry x="94" y="371" width="60" height="30" as="geometry" />
        </mxCell>
        <mxCell id="ysh2dZmAzOo2GhFwSXoA-57" style="edgeStyle=none;curved=1;rounded=0;orthogonalLoop=1;jettySize=auto;html=1;exitX=0.5;exitY=1;exitDx=0;exitDy=0;entryX=0.444;entryY=0.067;entryDx=0;entryDy=0;entryPerimeter=0;fontSize=12;startSize=8;endSize=8;" edge="1" parent="1" source="ysh2dZmAzOo2GhFwSXoA-13" target="ysh2dZmAzOo2GhFwSXoA-14">
          <mxGeometry relative="1" as="geometry" />
        </mxCell>
        <mxCell id="ysh2dZmAzOo2GhFwSXoA-61" value="" style="endArrow=none;html=1;rounded=0;fontSize=12;startSize=8;endSize=8;curved=1;" edge="1" parent="1">
          <mxGeometry width="50" height="50" relative="1" as="geometry">
            <mxPoint x="-260" y="1040" as="sourcePoint" />
            <mxPoint x="410" y="1040" as="targetPoint" />
          </mxGeometry>
        </mxCell>
        <mxCell id="ysh2dZmAzOo2GhFwSXoA-62" value="" style="endArrow=classic;html=1;rounded=0;fontSize=12;startSize=8;endSize=8;curved=1;entryX=0.5;entryY=0;entryDx=0;entryDy=0;" edge="1" parent="1" target="ysh2dZmAzOo2GhFwSXoA-17">
          <mxGeometry width="50" height="50" relative="1" as="geometry">
            <mxPoint x="-255" y="1040" as="sourcePoint" />
            <mxPoint x="-80" y="1080" as="targetPoint" />
          </mxGeometry>
        </mxCell>
        <mxCell id="ysh2dZmAzOo2GhFwSXoA-63" value="" style="endArrow=classic;html=1;rounded=0;fontSize=12;startSize=8;endSize=8;curved=1;entryX=0.5;entryY=0;entryDx=0;entryDy=0;" edge="1" parent="1" target="ysh2dZmAzOo2GhFwSXoA-16">
          <mxGeometry width="50" height="50" relative="1" as="geometry">
            <mxPoint x="-95" y="1040" as="sourcePoint" />
            <mxPoint x="-80" y="1080" as="targetPoint" />
          </mxGeometry>
        </mxCell>
        <mxCell id="ysh2dZmAzOo2GhFwSXoA-64" value="" style="endArrow=classic;html=1;rounded=0;fontSize=12;startSize=8;endSize=8;curved=1;entryX=0.5;entryY=0;entryDx=0;entryDy=0;" edge="1" parent="1" target="ysh2dZmAzOo2GhFwSXoA-19">
          <mxGeometry width="50" height="50" relative="1" as="geometry">
            <mxPoint x="235" y="1040" as="sourcePoint" />
            <mxPoint x="230" y="1080" as="targetPoint" />
          </mxGeometry>
        </mxCell>
        <mxCell id="ysh2dZmAzOo2GhFwSXoA-65" value="" style="endArrow=classic;html=1;rounded=0;fontSize=12;startSize=8;endSize=8;curved=1;entryX=0.5;entryY=0;entryDx=0;entryDy=0;" edge="1" parent="1" target="ysh2dZmAzOo2GhFwSXoA-18">
          <mxGeometry width="50" height="50" relative="1" as="geometry">
            <mxPoint x="405" y="1040" as="sourcePoint" />
            <mxPoint x="230" y="1080" as="targetPoint" />
          </mxGeometry>
        </mxCell>
        <mxCell id="ysh2dZmAzOo2GhFwSXoA-75" value="" style="endArrow=none;html=1;rounded=0;fontSize=12;startSize=8;endSize=8;curved=1;exitX=0.5;exitY=1;exitDx=0;exitDy=0;" edge="1" parent="1" source="ysh2dZmAzOo2GhFwSXoA-22">
          <mxGeometry width="50" height="50" relative="1" as="geometry">
            <mxPoint x="70" y="1210" as="sourcePoint" />
            <mxPoint x="-255" y="1310" as="targetPoint" />
          </mxGeometry>
        </mxCell>
        <mxCell id="ysh2dZmAzOo2GhFwSXoA-76" value="" style="endArrow=none;html=1;rounded=0;fontSize=12;startSize=8;endSize=8;curved=1;" edge="1" parent="1">
          <mxGeometry width="50" height="50" relative="1" as="geometry">
            <mxPoint x="-324" y="1310" as="sourcePoint" />
            <mxPoint x="-184" y="1310" as="targetPoint" />
          </mxGeometry>
        </mxCell>
        <mxCell id="ysh2dZmAzOo2GhFwSXoA-77" value="" style="endArrow=classic;html=1;rounded=0;fontSize=12;startSize=8;endSize=8;curved=1;entryX=0.5;entryY=0;entryDx=0;entryDy=0;" edge="1" parent="1" target="ysh2dZmAzOo2GhFwSXoA-24">
          <mxGeometry width="50" height="50" relative="1" as="geometry">
            <mxPoint x="-185" y="1310" as="sourcePoint" />
            <mxPoint x="-120" y="1230" as="targetPoint" />
          </mxGeometry>
        </mxCell>
        <mxCell id="ysh2dZmAzOo2GhFwSXoA-78" value="" style="endArrow=classic;html=1;rounded=0;fontSize=12;startSize=8;endSize=8;curved=1;entryX=0.488;entryY=0.043;entryDx=0;entryDy=0;entryPerimeter=0;" edge="1" parent="1" target="ysh2dZmAzOo2GhFwSXoA-25">
          <mxGeometry width="50" height="50" relative="1" as="geometry">
            <mxPoint x="-327" y="1310" as="sourcePoint" />
            <mxPoint x="-120" y="1230" as="targetPoint" />
          </mxGeometry>
        </mxCell>
        <mxCell id="ysh2dZmAzOo2GhFwSXoA-79" style="edgeStyle=none;curved=1;rounded=0;orthogonalLoop=1;jettySize=auto;html=1;exitX=0.5;exitY=1;exitDx=0;exitDy=0;entryX=0.5;entryY=0;entryDx=0;entryDy=0;fontSize=12;startSize=8;endSize=8;" edge="1" parent="1" source="ysh2dZmAzOo2GhFwSXoA-25" target="ysh2dZmAzOo2GhFwSXoA-26">
          <mxGeometry relative="1" as="geometry" />
        </mxCell>
        <mxCell id="ysh2dZmAzOo2GhFwSXoA-81" value="終了" style="rounded=0;whiteSpace=wrap;html=1;" vertex="1" parent="1">
          <mxGeometry x="5" y="1600" width="120" height="60" as="geometry" />
        </mxCell>
        <mxCell id="ysh2dZmAzOo2GhFwSXoA-82" value="" style="endArrow=none;html=1;rounded=0;fontSize=12;startSize=8;endSize=8;curved=1;entryX=0.5;entryY=1;entryDx=0;entryDy=0;" edge="1" parent="1" target="ysh2dZmAzOo2GhFwSXoA-33">
          <mxGeometry width="50" height="50" relative="1" as="geometry">
            <mxPoint x="240" y="1500" as="sourcePoint" />
            <mxPoint x="-230" y="1050" as="targetPoint" />
          </mxGeometry>
        </mxCell>
        <mxCell id="ysh2dZmAzOo2GhFwSXoA-83" value="" style="endArrow=none;html=1;rounded=0;fontSize=12;startSize=8;endSize=8;curved=1;" edge="1" parent="1">
          <mxGeometry width="50" height="50" relative="1" as="geometry">
            <mxPoint x="70" y="1500" as="sourcePoint" />
            <mxPoint x="240" y="1500" as="targetPoint" />
          </mxGeometry>
        </mxCell>
        <mxCell id="ysh2dZmAzOo2GhFwSXoA-84" value="" style="endArrow=classic;html=1;rounded=0;fontSize=12;startSize=8;endSize=8;curved=1;entryX=0.5;entryY=0;entryDx=0;entryDy=0;" edge="1" parent="1">
          <mxGeometry width="50" height="50" relative="1" as="geometry">
            <mxPoint x="70" y="1500" as="sourcePoint" />
            <mxPoint x="70" y="1600" as="targetPoint" />
          </mxGeometry>
        </mxCell>
        <mxCell id="ysh2dZmAzOo2GhFwSXoA-85" value="" style="endArrow=none;html=1;rounded=0;fontSize=12;startSize=8;endSize=8;curved=1;" edge="1" parent="1">
          <mxGeometry width="50" height="50" relative="1" as="geometry">
            <mxPoint x="-325" y="1530" as="sourcePoint" />
            <mxPoint x="490" y="1540" as="targetPoint" />
          </mxGeometry>
        </mxCell>
        <mxCell id="ysh2dZmAzOo2GhFwSXoA-86" value="" style="endArrow=none;html=1;rounded=0;fontSize=12;startSize=8;endSize=8;curved=1;exitX=0.5;exitY=1;exitDx=0;exitDy=0;" edge="1" parent="1" source="ysh2dZmAzOo2GhFwSXoA-26">
          <mxGeometry width="50" height="50" relative="1" as="geometry">
            <mxPoint x="-180" y="1360" as="sourcePoint" />
            <mxPoint x="-325" y="1530" as="targetPoint" />
          </mxGeometry>
        </mxCell>
        <mxCell id="ysh2dZmAzOo2GhFwSXoA-87" value="" style="endArrow=none;html=1;rounded=0;fontSize=12;startSize=8;endSize=8;curved=1;entryX=0.5;entryY=1;entryDx=0;entryDy=0;" edge="1" parent="1" target="ysh2dZmAzOo2GhFwSXoA-27">
          <mxGeometry width="50" height="50" relative="1" as="geometry">
            <mxPoint x="-185" y="1530" as="sourcePoint" />
            <mxPoint x="-130" y="1310" as="targetPoint" />
          </mxGeometry>
        </mxCell>
        <mxCell id="ysh2dZmAzOo2GhFwSXoA-88" value="" style="endArrow=none;html=1;rounded=0;fontSize=12;startSize=8;endSize=8;curved=1;entryX=0.097;entryY=1.069;entryDx=0;entryDy=0;entryPerimeter=0;" edge="1" parent="1" target="ysh2dZmAzOo2GhFwSXoA-31">
          <mxGeometry width="50" height="50" relative="1" as="geometry">
            <mxPoint x="20" y="1530" as="sourcePoint" />
            <mxPoint x="-130" y="1310" as="targetPoint" />
          </mxGeometry>
        </mxCell>
        <mxCell id="ysh2dZmAzOo2GhFwSXoA-89" value="" style="endArrow=none;html=1;rounded=0;fontSize=12;startSize=8;endSize=8;curved=1;entryX=0.5;entryY=1;entryDx=0;entryDy=0;" edge="1" parent="1" target="ysh2dZmAzOo2GhFwSXoA-34">
          <mxGeometry width="50" height="50" relative="1" as="geometry">
            <mxPoint x="405" y="1540" as="sourcePoint" />
            <mxPoint x="220" y="1370" as="targetPoint" />
          </mxGeometry>
        </mxCell>
        <mxCell id="ysh2dZmAzOo2GhFwSXoA-90" value="" style="endArrow=none;html=1;rounded=0;fontSize=12;startSize=8;endSize=8;curved=1;" edge="1" parent="1">
          <mxGeometry width="50" height="50" relative="1" as="geometry">
            <mxPoint x="490" y="820" as="sourcePoint" />
            <mxPoint x="490" y="1540" as="targetPoint" />
          </mxGeometry>
        </mxCell>
        <mxCell id="ysh2dZmAzOo2GhFwSXoA-91" value="" style="endArrow=classic;html=1;rounded=0;fontSize=12;startSize=8;endSize=8;curved=1;entryX=1;entryY=0.5;entryDx=0;entryDy=0;" edge="1" parent="1" target="ysh2dZmAzOo2GhFwSXoA-13">
          <mxGeometry width="50" height="50" relative="1" as="geometry">
            <mxPoint x="490" y="820" as="sourcePoint" />
            <mxPoint x="20" y="1090" as="targetPoint" />
          </mxGeometry>
        </mxCell>
      </root>
    </mxGraphModel>
  </diagram>
</mxfile>
